<svg width="25" height="25" viewBox="0 0 25 25" fill="none" xmlns="http://www.w3.org/2000/svg">
<path d="M12.5 0C5.60708 0 0 5.60708 0 12.5C0 19.3929 5.60708 25 12.5 25C19.3929 25 25 19.3929 25 12.5C25 5.60708 19.3929 0 12.5 0ZM12.5 23.9583C6.18184 23.9583 1.04165 18.8182 1.04165 12.5C1.04165 6.18184 6.18184 1.04165 12.5 1.04165C18.8182 1.04165 23.9583 6.18184 23.9583 12.5C23.9583 18.8182 18.8182 23.9583 12.5 23.9583Z" fill="#474747"/>
<path d="M14.9516 6.4026C14.7481 6.19913 14.4185 6.19913 14.2151 6.4026L8.48594 12.1318C8.28248 12.3352 8.28248 12.6648 8.48594 12.8682L14.2151 18.5974C14.3168 18.6991 14.4501 18.75 14.5834 18.75C14.7166 18.75 14.8499 18.6991 14.9516 18.5974C15.1551 18.3939 15.1551 18.0643 14.9516 17.8609L9.59068 12.5L14.9516 7.13907C15.155 6.93566 15.155 6.60607 14.9516 6.4026Z" fill="#474747"/>
</svg>
