<svg width="19" height="17" viewBox="0 0 19 17" fill="none" xmlns="http://www.w3.org/2000/svg">
<path d="M17.7469 5.26432C17.5571 5.0413 17.2207 5.04311 17.0099 5.24642C16.7881 5.46035 16.7915 5.81374 16.9827 6.05537C17.5443 6.76493 17.8482 7.62772 17.8482 8.5356C17.8482 9.41934 17.5584 10.2637 17.0229 10.9638C16.8355 11.2087 16.8377 11.5623 17.0629 11.7729C17.2769 11.973 17.6136 11.9696 17.7998 11.7433C18.5491 10.8332 18.9564 9.71203 18.9564 8.5356C18.9564 7.32873 18.5304 6.18502 17.7469 5.26432Z" fill="#D0021B"/>
<path d="M16.1659 6.78824C15.9924 6.5523 15.6536 6.55496 15.4428 6.75828C15.2211 6.97222 15.23 7.32537 15.3827 7.59304C15.5455 7.87856 15.632 8.20067 15.632 8.53562C15.632 8.86245 15.5493 9.17773 15.3935 9.4586C15.244 9.72817 15.2389 10.0816 15.4631 10.2932C15.6762 10.4942 16.0152 10.4932 16.1859 10.2551C16.5461 9.75305 16.7402 9.15785 16.7402 8.53562C16.7402 7.90076 16.5391 7.29574 16.1659 6.78824Z" fill="#D0021B"/>
<path d="M2.01716 6.05537C2.20838 5.81374 2.21175 5.46035 1.98998 5.24642C1.77922 5.04312 1.44277 5.0413 1.25299 5.26432C0.469517 6.18502 0.043457 7.32873 0.043457 8.5356C0.043457 9.71203 0.450817 10.8332 1.2001 11.7433C1.38634 11.9696 1.72301 11.973 1.93703 11.7729C2.16223 11.5623 2.16435 11.2087 1.97703 10.9638C1.44148 10.2637 1.15165 9.41934 1.15165 8.5356C1.15165 7.62772 1.45563 6.76493 2.01716 6.05537Z" fill="#D0021B"/>
<path d="M3.61737 7.59304C3.77001 7.32537 3.77895 6.97222 3.55718 6.75829C3.34642 6.55497 3.00755 6.55231 2.83408 6.78825C2.46094 7.29576 2.25983 7.9008 2.25983 8.53566C2.25983 9.15788 2.45386 9.75306 2.81402 10.2551C2.98479 10.4932 3.32379 10.4943 3.53686 10.2932C3.76105 10.0816 3.75603 9.72821 3.60652 9.45864C3.45073 9.17777 3.36801 8.86249 3.36801 8.53566C3.36801 8.20071 3.45453 7.87859 3.61737 7.59304Z" fill="#D0021B"/>
<path d="M7.49057 14.7394C7.49053 14.7437 7.49023 14.7479 7.49023 14.7522C7.49023 15.8255 8.39005 16.6956 9.50004 16.6956C10.61 16.6956 11.5098 15.8255 11.5098 14.7522C11.5098 14.7479 11.5095 14.7437 11.5095 14.7394H7.49057Z" fill="#D0021B"/>
<path d="M15.9169 12.3102L14.108 9.74083C14.108 8.95429 14.108 7.03241 14.108 6.53525C14.108 4.37342 12.5159 2.5714 10.4036 2.16531V1.17819C10.4036 0.695657 9.99903 0.304443 9.49999 0.304443C9.00094 0.304443 8.5964 0.695657 8.5964 1.17819V2.16534C6.48415 2.57147 4.89199 4.37349 4.89199 6.53528C4.89199 7.38159 4.89199 9.25034 4.89199 9.74086L3.08316 12.3102C2.89262 12.5809 2.87247 12.9312 3.03079 13.2206C3.18911 13.51 3.49991 13.691 3.8385 13.691H15.1615C15.5001 13.691 15.8109 13.51 15.9692 13.2206C16.1275 12.9312 16.1073 12.5808 15.9169 12.3102Z" fill="#D0021B"/>
</svg>
