<svg width="14" height="14" viewBox="0 0 14 14" fill="none" xmlns="http://www.w3.org/2000/svg">
<path d="M6.64948 12.1907H1.66236C1.35648 12.1907 1.10825 11.9425 1.10825 11.6366V1.66238C1.10825 1.3565 1.3565 1.10827 1.66236 1.10827H6.64948C6.95591 1.10827 7.20359 0.860589 7.20359 0.554163C7.20359 0.247737 6.95591 0 6.64948 0H1.66236C0.745842 0 0 0.745868 0 1.66238V11.6366C0 12.5531 0.745842 13.2989 1.66236 13.2989H6.64948C6.95591 13.2989 7.20359 13.0513 7.20359 12.7448C7.20359 12.4384 6.95591 12.1907 6.64948 12.1907Z" fill="black" fill-opacity="0.5"/>
<path d="M13.1781 6.25502L9.80907 2.93028C9.59185 2.71528 9.24055 2.71806 9.02554 2.93583C8.81054 3.1536 8.81275 3.50435 9.03109 3.71936L11.4387 6.09542H4.98709C4.68067 6.09542 4.43298 6.34311 4.43298 6.64953C4.43298 6.95596 4.68067 7.20367 4.98709 7.20367H11.4387L9.03109 9.57974C8.81278 9.79474 8.81111 10.1455 9.02554 10.3633C9.13414 10.473 9.27711 10.5284 9.42008 10.5284C9.56084 10.5284 9.70157 10.4752 9.80907 10.3688L13.1781 7.04405C13.2834 6.93988 13.3433 6.798 13.3433 6.64951C13.3433 6.50106 13.284 6.35976 13.1781 6.25502Z" fill="black" fill-opacity="0.5"/>
</svg>
