<svg width="16" height="16" viewBox="0 0 16 16" fill="none" xmlns="http://www.w3.org/2000/svg">
<path d="M16 6.03537C16 10.5377 10.1641 15.616 9.91589 15.8299C9.78377 15.9432 9.616 16 9.44731 16C9.28549 16 9.1232 15.9474 8.99383 15.8421C8.96 15.8143 8.816 15.6964 8.60023 15.5065C9.91726 14.2952 14.3241 9.94905 14.3241 6.03537C14.3241 2.96968 11.8267 0.436211 8.60891 0.0551579C8.88503 0.0227368 9.16251 0 9.44731 0C13.0606 0.000421053 16 2.70779 16 6.03537ZM13.1045 6.03537C13.1045 10.5377 7.26857 15.616 7.02034 15.8299C6.88914 15.9432 6.72046 16 6.55177 16C6.38994 16 6.22766 15.9474 6.09829 15.8421C5.84914 15.64 0 10.8265 0 6.03537C0 2.70779 2.93943 0.000421053 6.55177 0.000421053C10.165 0.000421053 13.1045 2.70779 13.1045 6.03537ZM9.67589 6.03537C9.67589 4.44632 8.27657 3.15832 6.55177 3.15832C4.82697 3.15832 3.42857 4.44674 3.42857 6.03537C3.42857 7.624 4.82697 8.91242 6.55177 8.91242C8.27657 8.91242 9.67589 7.62442 9.67589 6.03537Z" fill="#D2D2D2"/>
</svg>
